<?xml version="1.0" encoding="UTF-8"?>
<svg id="Layer_2" data-name="Layer 2" xmlns="http://www.w3.org/2000/svg" viewBox="0 0 645.57 591.94">
  <defs>
    <style>
      .cls-1 {
        fill: #b4b4b4;
      }

      .cls-2 {
        fill: #787878;
      }

      .cls-3 {
        fill: none;
      }

      .cls-4 {
        fill: #a0a0a0;
      }

      .cls-5 {
        fill: #fe5000;
      }
    </style>
  </defs>
  <g id="svg2848">
    <g>
      <path class="cls-3" d="M489.34,258.3s0,.24,0,.61c.19-.2.38-.41.57-.61h-.57Z"/>
      <path class="cls-2" d="M141.82,43.35c-30.71,18.71-56.85,42.28-78.04,69.14,11.66-.79,23.32-2.34,34.91-4.68,11.61-22.97,26.04-44.64,43.13-64.46Z"/>
      <path class="cls-1" d="M242.71,27.53c7.67-8.19,14.75-16.85,21.28-25.83-32.42,3.5-64.69,12.45-95.56,27.23,24.83-3.36,49.75-3.83,74.28-1.4Z"/>
      <path class="cls-2" d="M169.36,82.92l-13.86-25.59c-11.77,13.79-22.15,28.54-31.14,44.01,15.27-4.69,30.33-10.84,45-18.42Z"/>
      <path class="cls-4" d="M186.59,73.3c13.4-8.19,25.82-17.44,37.28-27.49-16.92-.71-33.98-.02-51,2.17l13.72,25.32Z"/>
      <path class="cls-1" d="M424.68,29.43C382.59,9.17,336.01-.98,288.99.08c-6.86,10.66-14.43,20.93-22.72,30.68,45.5,7.94,88.97,25.68,127.08,52.18,11.78-17.1,22.23-35,31.32-53.51Z"/>
      <path class="cls-2" d="M64.53,265.18c-1.98-46.5,6.45-92.82,24.18-135.54-13.19,1.99-26.45,3.03-39.65,3.18C23.19,172.05,7.07,216.85,1.86,263.3c20.73,2.16,41.68,2.82,62.66,1.88Z"/>
      <path class="cls-4" d="M302.32,138.32c13.49,1.39,25.05,4.99,34.56,10.72,16.44-15.63,31.47-32.42,44.98-50.18-39.19-27.25-84.45-44.61-131.59-50.79-16.04,16.02-34.17,30.32-54.3,42.54l24.72,45.62h26.38c23.46,0,41.53.69,55.26,2.1Z"/>
      <path class="cls-2" d="M143.97,137.03c11.34-.54,25.14-.81,41.01-.81h13.25l-19.48-35.95c-21.65,11.22-44.08,19.48-66.83,24.85-3.27,7.01-6.26,14.14-8.98,21.36,1.42-.74,2.88-1.43,4.38-2.07,10.1-4.27,22.08-6.69,36.64-7.38Z"/>
      <path class="cls-1" d="M521.41,136.22c8.7,0,16.67.13,23.98.4-26.66-41.82-62.41-74.87-103.26-98-9.56,19.4-20.57,38.15-32.95,56.07,15.52,12.31,29.96,26.19,43.1,41.54,2.26-.02,4.6-.02,7.04-.02h62.08Z"/>
      <path class="cls-2" d="M63.96,328.23c.85-8.21,2.52-15.71,4.99-22.47-1.22-6.95-2.21-13.92-2.95-20.9-22,1-43.96.32-65.7-1.92-2.26,49.94,8.1,101.02,32.53,148.44,10.14.22,20.29.18,30.46-.11-.96-12.58-1.43-28.3-1.43-47.76,0-23.53.69-41.61,2.1-55.27Z"/>
      <path class="cls-4" d="M368.31,190.1c1.2-15.69,6.41-28.26,15.49-37.34,9.07-9.07,21.63-14.28,37.34-15.49,1.64-.13,3.39-.24,5.23-.34-9.06-9.47-18.66-18.27-28.76-26.35-13.75,18.13-29.02,35.28-45.69,51.29,8.39,10.05,13.69,23.14,15.79,39.05.16-4.02.36-7.62.61-10.82Z"/>
      <path class="cls-2" d="M129.71,504.52c-19.52-2.01-35.02-8.63-46.07-19.7-8.64-8.64-14.57-20.03-17.71-33.94-7.32.24-14.63.35-21.93.32,30.17,49.06,72.74,86.44,121.41,110.31,30.21-5.1,60.28-12.13,90.07-21.17-21.13-8.98-41.31-20.27-60.13-33.72h-10.37c-23.54,0-41.62-.69-55.27-2.1Z"/>
      <path class="cls-2" d="M367.31,470c-2.9,10.31-8.63,19-16.56,25.13-7.11,5.49-15.99,8.96-26.37,10.28-6.32.81-13.86,1.21-23,1.21h-69.91c17.01,9.78,34.92,17.84,53.44,24.09,32.97-11.56,65.47-25.66,97.32-42.29-6.66-7.34-11-16.75-12.96-28.07-.47,3.46-1.11,6.67-1.95,9.66Z"/>
      <path class="cls-1" d="M449.99,548.7c19.94-12.13,37.97-26.29,53.96-42.08h-23.25c-9.03,14.74-19.28,28.83-30.72,42.08Z"/>
      <path class="cls-2" d="M285.42,551.32c-28.82,9.82-57.95,17.76-87.25,23.92,71.63,25.06,152.61,22.65,225.58-12.33-46.87,6.36-94.12,2.2-138.33-11.59Z"/>
      <path class="cls-4" d="M420.78,505.53l15.69,28.96c7.6-8.92,14.62-18.23,21.07-27.87-15.58-.02-27.51-.37-36.4-1.06-.12,0-.24-.02-.36-.03Z"/>
      <path class="cls-2" d="M419.15,543.94l-22.21-40.98c-26.11,13.91-52.64,26.17-79.55,36.72,33.09,7.15,67.51,8.7,101.75,4.27Z"/>
      <path class="cls-5" d="M184.98,476.62c-22.25,0-39.64-.64-52.19-1.94-12.55-1.29-21.86-4.98-27.94-11.06-6.08-6.07-9.77-15.39-11.06-27.94-1.3-12.54-1.94-29.94-1.94-52.19s.64-39.64,1.94-52.19c1.29-12.54,4.98-21.86,11.06-27.94,6.07-6.07,15.39-9.76,27.94-11.06,12.54-1.29,29.94-1.94,52.19-1.94h62.08c7.76,0,13.71-.13,17.85-.39,4.13-.25,7.18-1.36,9.12-3.3,1.94-1.94,3.1-5.04,3.49-9.31.39-4.27.58-10.28.58-18.04s-.19-13.71-.58-17.85c-.39-4.13-1.55-7.18-3.49-9.12-1.94-1.94-4.98-3.1-9.12-3.49-4.14-.39-10.09-.58-17.85-.58h-62.08c-7.24,0-12.22.78-14.94,2.33-2.72,1.55-4.4,3.49-5.04,5.82-.65,2.33-.91,4.79-.78,7.37.13,2.59-.52,5.04-1.94,7.37-1.42,2.33-4.14,4.27-8.15,5.82-4.01,1.55-10.54,2.33-19.59,2.33-7.76,0-13.97-.45-18.62-1.36-4.66-.9-8.15-2.91-10.48-6.01-2.33-3.1-3.88-7.76-4.66-13.97-.78-6.21-1.16-14.61-1.16-25.22,0-11.64,1.55-20.62,4.66-26.97,3.1-6.34,8.01-10.92,14.74-13.77,6.72-2.84,15.52-4.52,26.38-5.04,10.86-.52,24.06-.78,39.58-.78h62.08c22.24,0,39.64.65,52.19,1.94,12.54,1.3,21.86,4.98,27.94,11.06,6.07,6.08,9.76,15.39,11.06,27.94,1.29,12.55,1.94,29.94,1.94,52.19s-.65,39.64-1.94,52.19c-1.3,12.55-4.98,21.86-11.06,27.94-6.08,6.08-15.39,9.77-27.94,11.06-12.55,1.3-29.94,1.94-52.19,1.94h-15.52c-11.64,0-20.63.19-26.97.58-6.34.39-10.93,1.55-13.77,3.49-2.85,1.94-4.53,4.98-5.04,9.12-.52,4.14-.78,10.09-.78,17.85s.25,13.77.78,18.04c.52,4.27,2.19,7.37,5.04,9.31,2.84,1.94,7.43,3.04,13.77,3.3,6.34.26,15.33.39,26.97.39h69.84c7.76,0,14.16.33,19.21.97,5.04.65,8.98,2.07,11.83,4.27,2.84,2.2,4.85,5.37,6.01,9.51,1.16,4.14,1.75,9.57,1.75,16.3s-.58,12.16-1.75,16.3c-1.16,4.14-3.17,7.31-6.01,9.51-2.85,2.2-6.79,3.63-11.83,4.27-5.04.65-11.45.97-19.21.97h-116.4Z"/>
      <path class="cls-5" d="M320.59,475.65c5.04-.64,8.98-2.07,11.83-4.27,2.84-2.19,4.85-5.37,6.01-9.51,1.16-4.13,1.75-9.57,1.75-16.3s-.58-12.16-1.75-16.3c-1.16-4.13-3.17-7.31-6.01-9.51-2.85-2.2-6.79-3.62-11.83-4.27-5.04-.64-11.45-.97-19.21-.97h-69.84c-11.64,0-20.63-.13-26.97-.39-6.34-.25-10.93-1.36-13.77-3.3-2.85-1.94-4.53-5.04-5.04-9.31-.52-4.27-.78-10.28-.78-18.04s.25-13.71.78-17.85c.52-4.13,2.19-7.18,5.04-9.12,2.84-1.94,7.43-3.1,13.77-3.49,6.34-.39,15.33-.58,26.97-.58h15.52c22.24,0,39.64-.64,52.19-1.94,12.54-1.29,21.86-4.98,27.94-11.06,6.07-6.07,9.76-15.39,11.06-27.94,1.29-12.54,1.94-29.94,1.94-52.19s-.65-39.64-1.94-52.19c-1.3-12.54-4.98-21.86-11.06-27.94-6.08-6.07-15.39-9.76-27.94-11.06-12.55-1.29-29.94-1.94-52.19-1.94h-62.08c-15.52,0-28.71.26-39.58.78-10.86.52-19.66,2.2-26.38,5.04-6.73,2.85-11.64,7.44-14.74,13.77-3.1,6.34-4.66,15.33-4.66,26.97,0,10.61.39,19.01,1.16,25.22.78,6.21,2.33,10.86,4.66,13.97,2.33,3.1,5.82,5.11,10.48,6.01,4.66.91,10.86,1.36,18.62,1.36,9.05,0,15.58-.78,19.59-2.33,4.01-1.55,6.72-3.49,8.15-5.82,1.42-2.33,2.07-4.78,1.94-7.37-.13-2.58.13-5.04.78-7.37.64-2.33,2.33-4.27,5.04-5.82,2.72-1.55,7.69-2.33,14.94-2.33h62.08c7.76,0,13.71.19,17.85.58,4.13.39,7.18,1.55,9.12,3.49,1.94,1.94,3.1,4.98,3.49,9.12.39,4.14.58,10.09.58,17.85s-.19,13.77-.58,18.04c-.39,4.27-1.55,7.37-3.49,9.31-1.94,1.94-4.98,3.04-9.12,3.3-4.14.26-10.09.39-17.85.39h-62.08c-22.25,0-39.64.65-52.19,1.94-12.55,1.3-21.86,4.98-27.94,11.06-6.08,6.08-9.77,15.39-11.06,27.94-1.3,12.55-1.94,29.94-1.94,52.19s.64,39.64,1.94,52.19c1.29,12.55,4.98,21.86,11.06,27.94,6.07,6.08,15.39,9.77,27.94,11.06,12.54,1.3,29.94,1.94,52.19,1.94h116.4c7.76,0,14.16-.32,19.21-.97Z"/>
      <path class="cls-5" d="M637.43,303.38c-2.33-2.72-4.79-5.24-7.37-7.57-2.59-2.33-5.04-4.98-7.37-7.95-2.33-2.97-4.27-6.66-5.82-11.06-1.55-4.39-2.33-10.21-2.33-17.46,0-21.21-.84-38.02-2.52-50.44-1.69-12.42-5.69-21.79-12.03-28.13-6.34-6.34-15.71-10.34-28.13-12.03-12.42-1.68-29.23-2.52-50.44-2.52h-62.08c-15.52,0-27.49.33-35.89.97-8.41.65-14.55,2.91-18.43,6.79-3.88,3.88-6.15,10.03-6.79,18.43-.65,8.41-.97,20.37-.97,35.89v186.24c0,15.52.32,27.49.97,35.89.64,8.41,2.91,14.55,6.79,18.43,3.88,3.88,10.02,6.15,18.43,6.79,8.4.65,20.37.97,35.89.97h93.12c21.21,0,38.02-.84,50.44-2.52,12.42-1.68,21.79-5.69,28.13-12.03,6.34-6.34,10.34-15.65,12.03-27.94,1.68-12.28,2.52-29.16,2.52-50.63v-54.32c0-6.46-.78-11.7-2.33-15.71-1.55-4.01-3.49-7.37-5.82-10.09ZM487.27,414.54c-6.98,0-12.36-.13-16.1-.39-3.75-.25-6.54-1.36-8.34-3.3-1.81-1.94-2.85-5.04-3.1-9.31-.26-4.27-.39-10.28-.39-18.04v-124.16c0-7.76.13-13.71.39-17.85.25-4.13,1.36-7.18,3.3-9.12,1.94-1.94,5.04-3.1,9.31-3.49,4.27-.39,10.28-.58,18.04-.58h15.52c11.64,0,20.62.39,26.97,1.16,6.34.78,10.92,2.66,13.77,5.63,2.84,2.98,4.52,7.31,5.04,13,.52,5.69.78,13.33.78,22.89v97c0,10.61-.26,19.01-.78,25.22-.52,6.21-2.2,10.86-5.04,13.97-2.85,3.1-7.44,5.11-13.77,6.01-6.34.91-15.33,1.36-26.97,1.36h-18.62Z"/>
    </g>
  </g>
</svg>